<svg width="18.276855" height="17.500244" viewBox="0 0 18.2769 17.5002" fill="none" xmlns="http://www.w3.org/2000/svg" xmlns:xlink="http://www.w3.org/1999/xlink">
	<desc>
			Created with Pixso.
	</desc>
	<defs/>
	<path id="Icon" d="M11.7876 5.52661C11.856 5.66528 11.9883 5.76123 12.1411 5.78345L17.1235 6.50732C17.5088 6.56348 17.6621 7.03638 17.3838 7.30786L13.7783 10.8225C13.6675 10.9302 13.6172 11.0854 13.6431 11.2378L14.4946 16.2004C14.5601 16.5837 14.1577 16.876 13.8135 16.6951L9.35693 14.3521C9.22021 14.2803 9.05664 14.2803 8.91992 14.3521L4.46338 16.6951C4.11914 16.876 3.7168 16.5837 3.78271 16.2004L4.63379 11.2378C4.65967 11.0854 4.60938 10.9302 4.49854 10.8225L0.893066 7.30786C0.614746 7.03638 0.768555 6.56348 1.15332 6.50732L6.13623 5.78345C6.28906 5.76123 6.4209 5.66528 6.48926 5.52661L8.71777 1.01147C8.88965 0.662842 9.38721 0.662842 9.55908 1.01147L11.7876 5.52661Z" stroke="#FAAC36" stroke-opacity="1.000000" stroke-width="1.500000" stroke-linejoin="round"/>
</svg>
