<svg width="54" height="54" viewBox="0 0 54 54" fill="none" xmlns="http://www.w3.org/2000/svg">
<g filter="url(#filter0_d_756_7989)">
<path d="M34.4666 13.3999C35.6448 13.3999 36.5999 14.3419 36.5999 15.504L36.5999 19.0958C36.5999 20.2579 35.6448 21.1999 34.4666 21.1999H31.2666C30.0884 21.1999 29.1332 20.2579 29.1332 19.0958L29.1332 15.504C29.1332 14.3419 30.0884 13.3999 31.2666 13.3999L34.4666 13.3999Z" stroke="#388FF3" stroke-width="2" stroke-linecap="round" stroke-linejoin="round" shape-rendering="crispEdges"/>
<path d="M19.5332 13.3999C18.355 13.3999 17.3999 14.3419 17.3999 15.504L17.3999 19.0958C17.3999 20.2579 18.355 21.1999 19.5332 21.1999H22.7332C23.9114 21.1999 24.8666 20.2579 24.8666 19.0958L24.8666 15.504C24.8666 14.3419 23.9114 13.3999 22.7332 13.3999L19.5332 13.3999Z" stroke="#388FF3" stroke-width="2" stroke-linecap="round" stroke-linejoin="round" shape-rendering="crispEdges"/>
<path d="M34.4666 24.7999C35.6448 24.7999 36.5999 25.742 36.5999 26.9041V30.4958C36.5999 31.6579 35.6448 32.5999 34.4666 32.5999H31.2666C30.0884 32.5999 29.1332 31.6579 29.1332 30.4958L29.1332 26.9041C29.1332 25.742 30.0884 24.7999 31.2666 24.7999H34.4666Z" stroke="#388FF3" stroke-width="2" stroke-linecap="round" stroke-linejoin="round" shape-rendering="crispEdges"/>
<path d="M19.5332 24.7999C18.355 24.7999 17.3999 25.742 17.3999 26.9041L17.3999 30.4958C17.3999 31.6579 18.355 32.5999 19.5332 32.5999H22.7332C23.9115 32.5999 24.8666 31.6579 24.8666 30.4958L24.8666 26.9041C24.8666 25.742 23.9114 24.7999 22.7332 24.7999H19.5332Z" stroke="#388FF3" stroke-width="2" stroke-linecap="round" stroke-linejoin="round" shape-rendering="crispEdges"/>
</g>
<defs>
<filter id="filter0_d_756_7989" x="0.399902" y="0.399902" width="53.2" height="53.2" filterUnits="userSpaceOnUse" color-interpolation-filters="sRGB">
<feFlood flood-opacity="0" result="BackgroundImageFix"/>
<feColorMatrix in="SourceAlpha" type="matrix" values="0 0 0 0 0 0 0 0 0 0 0 0 0 0 0 0 0 0 127 0" result="hardAlpha"/>
<feOffset dy="4"/>
<feGaussianBlur stdDeviation="8"/>
<feComposite in2="hardAlpha" operator="out"/>
<feColorMatrix type="matrix" values="0 0 0 0 0.0666667 0 0 0 0 0.486275 0 0 0 0 0.960784 0 0 0 0.4 0"/>
<feBlend mode="normal" in2="BackgroundImageFix" result="effect1_dropShadow_756_7989"/>
<feBlend mode="normal" in="SourceGraphic" in2="effect1_dropShadow_756_7989" result="shape"/>
</filter>
</defs>
</svg>
